<svg width="17" height="4" viewBox="0 0 17 4" fill="none" xmlns="http://www.w3.org/2000/svg">
<path d="M2.5 4C1.95 4 1.47933 3.804 1.088 3.412C0.696 3.02067 0.5 2.55 0.5 2C0.5 1.45 0.696 0.979333 1.088 0.588C1.47933 0.196 1.95 0 2.5 0C3.05 0 3.52067 0.196 3.912 0.588C4.304 0.979333 4.5 1.45 4.5 2C4.5 2.55 4.304 3.02067 3.912 3.412C3.52067 3.804 3.05 4 2.5 4ZM8.5 4C7.95 4 7.47933 3.804 7.088 3.412C6.696 3.02067 6.5 2.55 6.5 2C6.5 1.45 6.696 0.979333 7.088 0.588C7.47933 0.196 7.95 0 8.5 0C9.05 0 9.521 0.196 9.913 0.588C10.3043 0.979333 10.5 1.45 10.5 2C10.5 2.55 10.3043 3.02067 9.913 3.412C9.521 3.804 9.05 4 8.5 4ZM14.5 4C13.95 4 13.479 3.804 13.087 3.412C12.6957 3.02067 12.5 2.55 12.5 2C12.5 1.45 12.6957 0.979333 13.087 0.588C13.479 0.196 13.95 0 14.5 0C15.05 0 15.521 0.196 15.913 0.588C16.3043 0.979333 16.5 1.45 16.5 2C16.5 2.55 16.3043 3.02067 15.913 3.412C15.521 3.804 15.05 4 14.5 4Z" fill="#797979"/>
</svg>